<svg width="90" height="90" viewBox="0 0 90 90" fill="none" xmlns="http://www.w3.org/2000/svg">
<g id="ic-notification">
<path id="Fill 3" fill-rule="evenodd" clip-rule="evenodd" d="M29.4771 83.9877C29.9661 87.0237 32.5761 89.3517 35.7501 89.3517C38.9241 89.3517 41.5371 87.0237 42.0231 83.9877H29.4771Z" fill="white"/>
<path id="Fill 5" fill-rule="evenodd" clip-rule="evenodd" d="M64.974 72.7881C63.471 72.7881 62.25 71.5701 62.25 70.0641V50.1621C62.25 36.8961 52.536 25.9251 39.837 23.9031C39.117 22.3611 37.563 21.2871 35.751 21.2871C33.954 21.2871 32.415 22.3431 31.686 23.8611C18.855 25.7691 9 36.8001 9 50.1621V70.0641C9 71.5701 7.782 72.7881 6.276 72.7881L1.884 73.1631C1.674 73.1631 1.5 73.3341 1.5 73.5471V82.0371H70.002V73.5471C70.002 73.3341 69.828 73.1631 69.615 73.1631L64.974 72.7881Z" fill="white"/>
<path id="Fill 7" fill-rule="evenodd" clip-rule="evenodd" d="M89.625 32.0613C89.625 48.1113 76.614 61.1253 60.561 61.1253C44.511 61.1253 31.5 48.1113 31.5 32.0613C31.5 16.0113 44.511 2.9973 60.561 2.9973C76.614 2.9973 89.625 16.0113 89.625 32.0613" fill="#E50914"/>
<path id="Fill 10" fill-rule="evenodd" clip-rule="evenodd" d="M69.6128 44.2488H52.4048C52.4258 42.1608 52.9298 40.3368 53.9168 38.7768C54.9008 37.2168 56.2448 35.8608 57.9488 34.7088C58.7648 34.1088 59.6168 33.5268 60.5048 32.9628C61.3928 32.3988 62.2088 31.7928 62.9528 31.1448C63.6938 30.4968 64.3058 29.7948 64.7888 29.0388C65.2688 28.2828 65.5208 27.4128 65.5448 26.4288C65.5448 25.9728 65.4908 25.4868 65.3828 24.9708C65.2748 24.4548 65.0618 23.9748 64.7528 23.5308C64.4378 23.0868 64.0088 22.7148 63.4568 22.4148C62.9048 22.1148 62.1818 21.9648 61.2968 21.9648C60.4808 21.9648 59.7998 22.1268 59.2628 22.4508C58.7228 22.7748 58.2908 23.2188 57.9668 23.7828C57.6428 24.3468 57.4028 25.0128 57.2468 25.7808C57.0908 26.5488 57.0008 27.3768 56.9768 28.2648H52.8728C52.8728 26.8728 53.0558 25.5828 53.4278 24.3948C53.7998 23.2068 54.3608 22.1808 55.1048 21.3168C55.8488 20.4528 56.7548 19.7748 57.8228 19.2828C58.8908 18.7908 60.1328 18.5448 61.5488 18.5448C63.0848 18.5448 64.3688 18.7968 65.4008 19.3008C66.4298 19.8048 67.2668 20.4408 67.9028 21.2088C68.5388 21.9768 68.9888 22.8108 69.2528 23.7108C69.5168 24.6108 69.6488 25.4688 69.6488 26.2848C69.6488 27.2928 69.4928 28.2048 69.1778 29.0208C68.8688 29.8368 68.4458 30.5868 67.9208 31.2708C67.3928 31.9548 66.7928 32.5848 66.1208 33.1608C65.4488 33.7368 64.7528 34.2768 64.0328 34.7808C63.3098 35.2848 62.5928 35.7648 61.8728 36.2208C61.1528 36.6768 60.4868 37.1328 59.8748 37.5888C59.2628 38.0448 58.7288 38.5188 58.2728 39.0108C57.8138 39.5028 57.5048 40.0248 57.3368 40.5768H69.6128V44.2488Z" fill="white"/>
</g>
</svg>
