<svg width="90" height="90" viewBox="0 0 90 90" fill="none" xmlns="http://www.w3.org/2000/svg">
<g id="ic-search">
<path id="search" fill-rule="evenodd" clip-rule="evenodd" d="M35.8522 49.668C32.0452 45.861 32.0452 39.669 35.8522 35.859C37.6972 34.017 40.1513 33 42.7583 33C45.3653 33 47.8162 34.017 49.6612 35.859C51.5062 37.704 52.5202 40.158 52.5202 42.765C52.5202 45.372 51.5062 47.823 49.6612 49.668C45.9742 53.355 39.5422 53.355 35.8522 49.668V49.668ZM64.6042 60.369L55.8173 51.582C57.5693 48.999 58.5203 45.957 58.5203 42.765C58.5203 38.553 56.8822 34.596 53.9032 31.617C50.9242 28.641 46.9672 27 42.7582 27C38.5462 27 34.5892 28.641 31.6102 31.617C25.4632 37.764 25.4632 47.766 31.6102 53.91C34.5892 56.889 38.5462 58.527 42.7582 58.527C45.9502 58.527 48.9892 57.576 51.5752 55.824L60.3623 64.611C60.9473 65.196 61.7153 65.49 62.4833 65.49C63.2513 65.49 64.0192 65.196 64.6042 64.611C65.7772 63.438 65.7772 61.539 64.6042 60.369V60.369Z" fill="white"/>
</g>
</svg>
